<svg xmlns="http://www.w3.org/2000/svg" width="1200" height="900" viewBox="0 0 1200 900"><defs><linearGradient id="wall" x2="1" y2="1"><stop stop-color="#e9e1d3"/><stop offset="1" stop-color="#d7c9b2"/></linearGradient><filter id="grain"><feTurbulence type="fractalNoise" baseFrequency=".65" numOctaves="3" stitchTiles="stitch"/><feColorMatrix type="saturate" values="0"/><feComponentTransfer><feFuncA type="linear" slope=".045"/></feComponentTransfer><feBlend in="SourceGraphic" mode="multiply"/></filter></defs><g filter="url(#grain)"><path fill="url(#wall)" d="M0 0h1200v900H0z"/><path fill="#fff9e9" opacity=".38" d="M0 0H348L898 900H458Z"/><path fill="#fff9e9" opacity=".25" d="M385 0H443L995 900H938Z"/><path fill="#9f947c" opacity=".12" d="M0 746L1200 570V900H0Z"/><ellipse cx="658" cy="740" rx="323" ry="39" fill="#8d806a" opacity=".15"/><path d="M359 572L845 502L1048 645L554 739Z" fill="#f4ecdf"/><path d="M359 572L554 739L554 900L359 900Z" fill="#c9b89d"/><path d="M554 739L1048 645L1048 900L554 900Z" fill="#deceb5"/><path d="M567 457C529 510 535 616 593 630L704 630C764 612 761 510 726 457L704 389L589 389Z" fill="#ded0b9"/><ellipse cx="646" cy="390" rx="58" ry="17" fill="#8a7863"/><path d="M647 391Q632 212 783 126M647 344Q513 278 467 142" stroke="#a4aa8c" stroke-width="7" fill="none"/><path d="M690 245Q665 115 779 91Q815 194 690 245M618 311Q492 320 474 207Q590 186 618 311M742 191Q839 99 908 176Q843 278 742 191" fill="#a4aa8c"/><path d="M425 667Q391 610 403 577L469 568Q495 606 486 650Z" fill="#f7f2e9"/><ellipse cx="436" cy="574" rx="34" ry="9" fill="#c2b19c"/></g></svg>